<svg width="574" height="125" viewBox="0 0 574 125" fill="none" xmlns="http://www.w3.org/2000/svg">
<path d="M483.503 70C483.294 69.9969 483.088 69.9568 482.894 69.8816L457.03 59.9127C456.728 59.7937 456.468 59.5909 456.285 59.3298C456.101 59.0687 456.002 58.7612 456 58.4459V43.4899C456.024 43.0871 456.207 42.7084 456.511 42.4314C456.815 42.1543 457.218 42 457.636 42C458.055 42 458.458 42.1543 458.762 42.4314C459.066 42.7084 459.249 43.0871 459.273 43.4899V57.3857L483.503 66.7319L507.727 57.3908V43.495C507.751 43.0922 507.934 42.7135 508.238 42.4365C508.542 42.1595 508.945 42.0052 509.364 42.0052C509.782 42.0052 510.185 42.1595 510.489 42.4365C510.793 42.7135 510.976 43.0922 511 43.495V58.4459C510.999 58.7613 510.9 59.0692 510.716 59.3304C510.533 59.5916 510.273 59.7943 509.97 59.9127L484.106 69.8816C483.914 69.9569 483.71 69.997 483.503 70Z" fill="#F4864D"/>
<path d="M483.503 39.9998C483.294 40.0034 483.086 39.9666 482.894 39.8919L457.035 30.3942C456.73 30.2846 456.468 30.0931 456.283 29.8446C456.099 29.5962 456 29.3025 456 29.0017C456 28.701 456.099 28.4072 456.283 28.1588C456.468 27.9104 456.73 27.7189 457.035 27.6092L482.894 18.1067C483.283 17.9644 483.717 17.9644 484.106 18.1067L509.965 27.6092C510.27 27.7189 510.532 27.9104 510.717 28.1588C510.901 28.4072 511 28.701 511 29.0017C511 29.3025 510.901 29.5962 510.717 29.8446C510.532 30.0931 510.27 30.2846 509.965 30.3942L484.106 39.8968C483.914 39.9675 483.709 40.0025 483.503 39.9998ZM462.042 29.0017L483.503 36.8862L504.958 29.0017L483.503 21.1173L462.042 29.0017Z" fill="#F4864D"/>
<path d="M457.179 31C456.756 30.9995 456.351 30.8319 456.05 30.5334L450.726 22.9157C450.426 22.6139 450.258 22.2046 450.258 21.778C450.258 21.3513 450.426 20.9421 450.726 20.6403C450.877 20.4883 448.816 20.3677 449.013 20.289L474.228 10.1128C474.518 9.99708 474.835 9.96965 475.141 10.034C475.446 10.0983 475.726 10.2515 475.945 10.4746L483.533 18.0871C483.681 18.2361 483.799 18.4131 483.879 18.6078C483.959 18.8026 484 19.0113 484 19.2221C484 19.4329 483.959 19.6417 483.879 19.8364C483.799 20.0312 483.681 20.2081 483.533 20.3572C483.385 20.5063 483.21 20.6245 483.016 20.7052C482.823 20.7858 482.616 20.8273 482.407 20.8273C482.197 20.8273 481.99 20.7858 481.797 20.7052C481.603 20.6245 481.428 20.5063 481.28 20.3572L474.436 13.5206L452.453 22.3599L458.303 28.2528C458.524 28.4778 458.675 28.7636 458.735 29.0743C458.796 29.3851 458.764 29.707 458.644 29.9997C458.524 30.2924 458.321 30.5429 458.061 30.7199C457.8 30.8969 457.493 30.9925 457.179 30.9948V31Z" fill="#F4864D"/>
<path d="M509.563 30.9999C509.128 30.9999 508.71 30.831 508.402 30.5302C508.094 30.2293 507.92 29.8211 507.919 29.395C507.921 28.9685 508.094 28.5599 508.401 28.2568L514.426 22.3563L491.793 13.5134L484.799 20.3685C484.492 20.6697 484.075 20.8389 483.64 20.8389C483.205 20.8389 482.788 20.6697 482.48 20.3685C482.173 20.0674 482 19.6589 482 19.233C482 18.8071 482.173 18.3986 482.48 18.0975L490.262 10.4766C490.486 10.2507 490.774 10.096 491.089 10.0324C491.405 9.96879 491.732 9.99931 492.029 10.12L517.971 20.2793C518.375 20.4401 518.698 20.7511 518.869 21.1442C519.039 21.5374 519.044 21.9808 518.882 22.3773C518.798 22.5732 518.676 22.7513 518.523 22.9018L510.747 30.5279C510.591 30.6795 510.406 30.7993 510.203 30.8803C510 30.9613 509.782 31.002 509.563 30.9999Z" fill="#F4864D"/>
<path d="M474.838 50C474.635 49.9983 474.435 49.9618 474.246 49.8921L449.07 40.3919C448.618 40.2154 450.515 39.8524 450.385 39.411C450.321 39.1884 450.31 38.9549 450.355 38.728C450.4 38.5012 450.499 38.287 450.645 38.1015L455.963 28.6013C456.088 28.4435 456.245 28.3105 456.425 28.21C456.605 28.1094 456.804 28.0432 457.01 28.0152C457.217 27.9872 457.428 27.9979 457.63 28.0467C457.833 28.0955 458.023 28.1815 458.19 28.2997C458.358 28.4179 458.499 28.566 458.605 28.7356C458.712 28.9051 458.782 29.0929 458.812 29.288C458.841 29.4832 458.83 29.6819 458.778 29.8729C458.726 30.0639 458.635 30.2435 458.51 30.4013L452.168 38.3369L474.313 46.6747L481.134 38.0868C481.259 37.929 481.417 37.796 481.597 37.6956C481.777 37.5952 481.976 37.5292 482.183 37.5014C482.39 37.4736 482.601 37.4846 482.804 37.5337C483.006 37.5828 483.196 37.6691 483.364 37.7876C483.531 37.9061 483.672 38.0545 483.778 38.2244C483.885 38.3943 483.955 38.5823 483.984 38.7777C484.014 38.973 484.002 39.172 483.95 39.3631C483.898 39.5543 483.806 39.7339 483.681 39.8917L476.112 49.3918C475.965 49.5801 475.773 49.7332 475.552 49.8388C475.331 49.9444 475.086 49.9996 474.838 50Z" fill="#F4864D"/>
<path d="M491.422 50C491.167 50.0002 490.916 49.9457 490.688 49.8409C490.46 49.7361 490.262 49.5839 490.11 49.3965L482.327 39.897C482.198 39.7391 482.104 39.5595 482.051 39.3684C481.998 39.1773 481.986 38.9784 482.017 38.7832C482.047 38.5879 482.119 38.4001 482.229 38.2305C482.339 38.0608 482.484 37.9126 482.657 37.7944C482.829 37.6762 483.025 37.5902 483.234 37.5414C483.442 37.4925 483.659 37.4818 483.872 37.5098C484.086 37.5379 484.291 37.6041 484.476 37.7047C484.661 37.8053 484.823 37.9383 484.952 38.0962L491.979 46.683L514.764 38.3415L508.267 30.4024C508.138 30.2445 508.044 30.0649 507.991 29.8738C507.938 29.6827 507.926 29.4838 507.957 29.2886C507.987 29.0933 508.059 28.9055 508.169 28.7359C508.279 28.5662 508.424 28.418 508.597 28.2998C508.769 28.1816 508.965 28.0956 509.174 28.0468C509.382 27.9979 509.599 27.9872 509.812 28.0152C510.026 28.0433 510.231 28.1095 510.416 28.2101C510.601 28.3107 510.763 28.4437 510.892 28.6016L518.674 38.106C518.934 38.4257 519.045 38.8268 518.983 39.2214C518.921 39.6159 518.69 39.9718 518.342 40.211C518.227 40.2899 518.101 40.3542 517.967 40.4024L492.022 49.897C491.831 49.9645 491.627 49.9995 491.422 50Z" fill="#F4864D"/>
<path d="M14.6631 65L0 14.8926H8.98926L19.3799 51.9775L29.4287 14.8926H38.2471L23.5498 65H14.6631Z" fill="#F4864D"/>
<path d="M59.2041 65V14.8926H89.6924V23.3691H67.4756V34.4775H88.1201V42.9199H67.4756V56.5576H90.4443V65H59.2041Z" fill="#F4864D"/>
<path d="M114.272 65V14.8926H122.339L139.155 48.3545V14.8926H146.88V65H138.54L121.997 32.3242V65H114.272Z" fill="#F4864D"/>
<path d="M181.433 65V23.3691H169.23V14.8926H201.872V23.3691H189.704V65H181.433Z" fill="#F4864D"/>
<path d="M224.102 14.8926H232.373V42.0312C232.373 46.2467 232.476 48.9925 232.681 50.2686C233.045 52.4788 233.911 54.1878 235.278 55.3955C236.668 56.6032 238.491 57.207 240.747 57.207C242.661 57.207 244.222 56.7855 245.43 55.9424C246.637 55.0765 247.458 53.8916 247.891 52.3877C248.346 50.861 248.574 47.6025 248.574 42.6123V14.8926H256.88V41.2109C256.88 47.9329 256.515 52.7979 255.786 55.8057C255.08 58.7907 253.462 61.2174 250.933 63.0859C248.426 64.9316 245.111 65.8545 240.986 65.8545C236.702 65.8545 233.353 65.0911 230.938 63.5645C228.545 62.015 226.802 59.8503 225.708 57.0703C224.637 54.2676 224.102 49.1178 224.102 41.6211V14.8926Z" fill="#F4864D"/>
<path d="M282.204 65V14.8926H299.67C304.136 14.8926 307.326 15.3483 309.24 16.2598C311.154 17.1484 312.727 18.7093 313.957 20.9424C315.188 23.1527 315.803 25.8073 315.803 28.9062C315.803 32.8255 314.857 35.9814 312.966 38.374C311.097 40.7666 308.431 42.2705 304.968 42.8857C306.745 44.1618 308.215 45.5632 309.377 47.0898C310.539 48.5938 312.123 51.3053 314.128 55.2246L319.118 65H309.24L303.225 54.0967C301.06 50.1546 299.59 47.6937 298.815 46.7139C298.041 45.7113 297.22 45.0277 296.354 44.6631C295.489 44.2757 294.099 44.082 292.185 44.082H290.476V65H282.204ZM290.476 36.084H296.628C300.388 36.084 302.78 35.9245 303.806 35.6055C304.831 35.2637 305.663 34.5915 306.301 33.5889C306.939 32.5863 307.258 31.2533 307.258 29.5898C307.258 27.9948 306.939 26.7188 306.301 25.7617C305.663 24.7819 304.797 24.1097 303.703 23.7451C302.928 23.4945 300.684 23.3691 296.97 23.3691H290.476V36.084Z" fill="#F4864D"/>
<path d="M340.204 65V14.8926H370.692V23.3691H348.476V34.4775H369.12V42.9199H348.476V56.5576H371.444V65H340.204Z" fill="#F4864D"/>
<path d="M395.17 14.8926H411.61C416.099 14.8926 419.255 15.3027 421.078 16.123C422.901 16.9434 424.439 18.3903 425.692 20.4639C426.946 22.5374 427.572 24.8844 427.572 27.5049C427.572 29.9202 427.037 32.1077 425.966 34.0674C424.895 36.0042 423.505 37.4398 421.796 38.374C424.234 39.2399 426.137 40.721 427.504 42.8174C428.894 44.9137 429.589 47.4658 429.589 50.4736C429.589 54.1195 428.712 57.207 426.957 59.7363C425.202 62.2428 423.129 63.7923 420.736 64.3848C419.073 64.7949 415.211 65 409.149 65H395.17V14.8926ZM403.441 23.2324V34.8193H408.91C412.191 34.8193 414.219 34.7624 414.994 34.6484C416.407 34.4206 417.512 33.8281 418.31 32.8711C419.107 31.8913 419.506 30.5697 419.506 28.9062C419.506 27.4251 419.175 26.2288 418.515 25.3174C417.877 24.3831 417.09 23.8021 416.156 23.5742C415.245 23.3464 412.602 23.2324 408.227 23.2324H403.441ZM403.441 43.1592V56.5576H411.132C414.504 56.5576 416.669 56.3867 417.626 56.0449C418.583 55.6803 419.381 54.9854 420.019 53.96C420.679 52.9118 421.01 51.5902 421.01 49.9951C421.01 48.3545 420.657 47.0101 419.95 45.9619C419.267 44.891 418.344 44.1618 417.182 43.7744C416.042 43.3643 413.695 43.1592 410.141 43.1592H403.441Z" fill="black"/>
<path d="M535.034 65L549.082 38.8525L536.333 14.8926H546.04L554.277 30.9912L562.344 14.8926H571.948L559.199 39.2285L573.247 65H563.232L554.106 47.6709L544.98 65H535.034Z" fill="black"/>
<path d="M174.1 109.28H166.24L164.32 113H158.95L170.29 91.94H176.23L180.13 113H174.7L174.1 109.28ZM173.5 105.38L172.27 97.58L168.25 105.38H173.5ZM187.969 102.44C188.329 100.36 189.099 98.51 190.279 96.89C191.479 95.25 192.959 93.98 194.719 93.08C196.479 92.16 198.379 91.7 200.419 91.7C202.919 91.7 204.939 92.36 206.479 93.68C208.039 95 208.919 96.8 209.119 99.08H203.479C203.219 98.22 202.739 97.57 202.039 97.13C201.359 96.67 200.519 96.44 199.519 96.44C197.939 96.44 196.569 96.99 195.409 98.09C194.249 99.17 193.509 100.62 193.189 102.44C193.089 103 193.039 103.49 193.039 103.91C193.039 105.31 193.429 106.42 194.209 107.24C194.989 108.06 196.059 108.47 197.419 108.47C198.399 108.47 199.309 108.24 200.149 107.78C201.009 107.32 201.729 106.66 202.309 105.8H207.949C206.949 108.08 205.439 109.88 203.419 111.2C201.399 112.5 199.139 113.15 196.639 113.15C194.839 113.15 193.269 112.8 191.929 112.1C190.589 111.4 189.559 110.41 188.839 109.13C188.119 107.85 187.759 106.36 187.759 104.66C187.759 103.9 187.829 103.16 187.969 102.44ZM215.321 102.44C215.681 100.36 216.451 98.51 217.631 96.89C218.831 95.25 220.311 93.98 222.071 93.08C223.831 92.16 225.731 91.7 227.771 91.7C230.271 91.7 232.291 92.36 233.831 93.68C235.391 95 236.271 96.8 236.471 99.08H230.831C230.571 98.22 230.091 97.57 229.391 97.13C228.711 96.67 227.871 96.44 226.871 96.44C225.291 96.44 223.921 96.99 222.761 98.09C221.601 99.17 220.861 100.62 220.541 102.44C220.441 103 220.391 103.49 220.391 103.91C220.391 105.31 220.781 106.42 221.561 107.24C222.341 108.06 223.411 108.47 224.771 108.47C225.751 108.47 226.661 108.24 227.501 107.78C228.361 107.32 229.081 106.66 229.661 105.8H235.301C234.301 108.08 232.791 109.88 230.771 111.2C228.751 112.5 226.491 113.15 223.991 113.15C222.191 113.15 220.621 112.8 219.281 112.1C217.941 111.4 216.911 110.41 216.191 109.13C215.471 107.85 215.111 106.36 215.111 104.66C215.111 103.9 215.181 103.16 215.321 102.44ZM249.782 95.99L249.032 100.37H255.902L255.212 104.24H248.342L247.502 108.95H255.272L254.552 113H241.652L245.372 91.94H258.272L257.552 95.99H249.782ZM268.203 109.1H274.923L274.233 113H262.383L266.103 91.94H271.233L268.203 109.1ZM289.31 95.99L288.56 100.37H295.43L294.74 104.24H287.87L287.03 108.95H294.8L294.08 113H281.18L284.9 91.94H297.8L297.08 95.99H289.31ZM314.24 91.94C316.42 91.94 318.08 92.44 319.22 93.44C320.36 94.42 320.93 95.7 320.93 97.28C320.93 97.74 320.89 98.17 320.81 98.57C320.57 99.97 319.96 101.22 318.98 102.32C318 103.42 316.69 104.2 315.05 104.66L318.44 113H312.65L309.68 105.05H308.45L307.04 113H301.91L305.63 91.94H314.24ZM315.56 98.78C315.6 98.46 315.62 98.25 315.62 98.15C315.62 97.51 315.41 97.02 314.99 96.68C314.59 96.32 313.99 96.14 313.19 96.14H310.01L309.08 101.42H312.26C313.2 101.42 313.94 101.19 314.48 100.73C315.04 100.27 315.4 99.62 315.56 98.78ZM339.75 109.28H331.89L329.97 113H324.6L335.94 91.94H341.88L345.78 113H340.35L339.75 109.28ZM339.15 105.38L337.92 97.58L333.9 105.38H339.15ZM371.47 91.94L370.78 95.99H365.17L362.17 113H357.04L360.04 95.99H354.46L355.18 91.94H371.47ZM384.844 113.21C383.064 113.21 381.494 112.84 380.134 112.1C378.794 111.36 377.754 110.32 377.014 108.98C376.274 107.64 375.904 106.1 375.904 104.36C375.904 101.9 376.434 99.71 377.494 97.79C378.554 95.85 380.024 94.34 381.904 93.26C383.804 92.18 385.954 91.64 388.354 91.64C390.154 91.64 391.734 92.01 393.094 92.75C394.454 93.47 395.504 94.5 396.244 95.84C396.984 97.16 397.354 98.68 397.354 100.4C397.354 102.86 396.824 105.07 395.764 107.03C394.704 108.97 393.224 110.49 391.324 111.59C389.424 112.67 387.264 113.21 384.844 113.21ZM385.624 108.47C386.944 108.47 388.104 108.13 389.104 107.45C390.104 106.77 390.874 105.86 391.414 104.72C391.974 103.56 392.254 102.31 392.254 100.97C392.254 99.53 391.854 98.4 391.054 97.58C390.254 96.76 389.134 96.35 387.694 96.35C386.374 96.35 385.204 96.69 384.184 97.37C383.184 98.05 382.404 98.96 381.844 100.1C381.304 101.22 381.034 102.46 381.034 103.82C381.034 105.26 381.434 106.4 382.234 107.24C383.034 108.06 384.164 108.47 385.624 108.47ZM415.238 91.94C417.418 91.94 419.078 92.44 420.218 93.44C421.358 94.42 421.928 95.7 421.928 97.28C421.928 97.74 421.888 98.17 421.808 98.57C421.568 99.97 420.958 101.22 419.978 102.32C418.998 103.42 417.688 104.2 416.048 104.66L419.438 113H413.648L410.678 105.05H409.448L408.038 113H402.908L406.628 91.94H415.238ZM416.558 98.78C416.598 98.46 416.618 98.25 416.618 98.15C416.618 97.51 416.408 97.02 415.988 96.68C415.588 96.32 414.988 96.14 414.188 96.14H411.008L410.078 101.42H413.258C414.198 101.42 414.938 101.19 415.478 100.73C416.038 100.27 416.398 99.62 416.558 98.78Z" fill="#071C87"/>
</svg>
