<svg id="Layer_1" data-name="Layer 1" xmlns="http://www.w3.org/2000/svg" viewBox="0 0 994.88 148.8"><defs><style>.cls-1,.cls-2,.cls-3,.cls-4{fill:#f4864d;}.cls-2,.cls-3,.cls-4,.cls-5{font-size:127.28px;font-family:ArialNarrow-Bold, Arial;font-weight:700;}.cls-2{letter-spacing:0em;}.cls-3{letter-spacing:0em;}.cls-4,.cls-5{letter-spacing:0em;}</style></defs><path class="cls-1" d="M817.35,446.35a3.18,3.18,0,0,1-1.14-.23l-48.44-19.37a3.1,3.1,0,0,1-1.93-2.85V394.84a3.07,3.07,0,0,1,6.13,0v27L817.35,440l45.37-18.15v-27a3.07,3.07,0,0,1,6.13,0V423.9a3.09,3.09,0,0,1-1.93,2.85l-48.44,19.37A3.12,3.12,0,0,1,817.35,446.35Z" transform="translate(0 -323.2)"/><path class="cls-1" d="M817.35,388.21a2.79,2.79,0,0,1-1.14-.22l-48.44-19.37a3.05,3.05,0,0,1,0-5.68l48.44-19.38a3.07,3.07,0,0,1,2.27,0l48.44,19.38a3.05,3.05,0,0,1,0,5.68L818.48,388A2.92,2.92,0,0,1,817.35,388.21Zm-40.2-22.43,40.2,16.08,40.19-16.08L817.35,349.7Z" transform="translate(0 -323.2)"/><path class="cls-1" d="M768.91,368.84a3.1,3.1,0,0,1-2.17-.89l-10.23-14.53a3.07,3.07,0,0,1,0-4.34c.29-.29-3.67-.52-3.29-.67L801.67,329a3.06,3.06,0,0,1,3.3.69l14.58,14.52a3.06,3.06,0,0,1-4.33,4.33L802.07,335.5l-42.24,16.86,11.24,11.24a3.07,3.07,0,0,1-2.16,5.23Z" transform="translate(0 -323.2)"/><path class="cls-1" d="M865.79,368.84a3.07,3.07,0,0,1-3.07-3.06,3.11,3.11,0,0,1,.9-2.17l11.25-11.25L832.61,335.5l-13.06,13.07a3.06,3.06,0,0,1-4.33-4.33h0l14.53-14.53a3,3,0,0,1,3.3-.68l48.44,19.37a3.08,3.08,0,0,1,1.7,4,3.13,3.13,0,0,1-.67,1L868,367.94A3.09,3.09,0,0,1,865.79,368.84Z" transform="translate(0 -323.2)"/><path class="cls-1" d="M802.81,407.59a3.21,3.21,0,0,1-1.14-.22L753.24,388c-.87-.36,2.78-1.1,2.53-2a3.11,3.11,0,0,1,.5-2.67l10.23-19.37a3.06,3.06,0,0,1,4.9,3.67l-12.2,16.18,42.6,17,13.12-17.51a3.06,3.06,0,1,1,4.9,3.68l-14.56,19.37A3.05,3.05,0,0,1,802.81,407.59Z" transform="translate(0 -323.2)"/><path class="cls-1" d="M831.88,407.59a3.05,3.05,0,0,1-2.45-1.23L814.9,387a3.06,3.06,0,1,1,4.9-3.67l13.12,17.5,42.54-17-12.13-16.18a3.06,3.06,0,0,1,4.9-3.67l14.53,19.37a3.07,3.07,0,0,1-.62,4.29,3,3,0,0,1-.7.39L833,407.38A3.14,3.14,0,0,1,831.88,407.59Z" transform="translate(0 -323.2)"/><text class="cls-2" transform="translate(0 109.77)">V</text><text class="cls-2" transform="translate(94.8 109.77)">E</text><text class="cls-3" transform="translate(184.81 109.77)">N</text><text class="cls-3" transform="translate(282.16 109.77)">T</text><text class="cls-3" transform="translate(363.51 109.77)">U</text><text class="cls-4" transform="translate(462.13 109.77)">R</text><text class="cls-4" transform="translate(563.58 109.77)">E</text><text class="cls-5" transform="translate(658.8 109.2)">B</text><text class="cls-5" transform="translate(896.51 109.2)">X </text></svg>